<svg width="716" height="452" viewBox="0 0 716 452" fill="none" xmlns="http://www.w3.org/2000/svg">
<path d="M239.077 132.169C165.123 29.9745 65.315 20.3337 0 0H716V452C618.644 370.665 559.491 474.792 436.255 442.258C257.563 386.34 292.05 205.37 239.077 132.169Z" fill="#6C63FF"/>
<g clip-path="url(#clip0)">
<path d="M670.715 406H337.703C334.741 406 331.901 404.827 329.807 402.738C327.713 400.649 326.537 397.816 326.537 394.862C447.253 380.868 565.701 380.868 681.881 394.862C681.881 397.816 680.704 400.649 678.61 402.738C676.516 404.827 673.676 406 670.715 406Z" fill="#CCCCCC"/>
<path d="M681.881 395.517L326.537 394.862L367.72 325.741L367.917 325.414V173.08C367.917 171.231 368.282 169.4 368.991 167.691C369.7 165.983 370.74 164.431 372.051 163.123C373.362 161.816 374.918 160.779 376.63 160.071C378.343 159.364 380.178 159 382.032 159H624.415C626.268 159 628.104 159.364 629.817 160.071C631.529 160.779 633.085 161.816 634.396 163.123C635.707 164.431 636.747 165.983 637.456 167.691C638.165 169.4 638.53 171.231 638.53 173.08V326.462L681.881 395.517Z" fill="#E6E6E6"/>
<path d="M381.71 168.828C380.491 168.829 379.323 169.313 378.461 170.172C377.599 171.032 377.114 172.198 377.112 173.414V312.31C377.114 313.526 377.599 314.692 378.461 315.552C379.323 316.412 380.491 316.895 381.71 316.897H626.707C627.926 316.895 629.095 316.411 629.957 315.552C630.819 314.692 631.303 313.526 631.305 312.31V173.414C631.303 172.198 630.819 171.032 629.957 170.172C629.095 169.313 627.926 168.829 626.707 168.828H381.71Z" fill="white"/>
<path d="M383.32 335.241C382.944 335.242 382.575 335.35 382.258 335.553C381.941 335.755 381.688 336.044 381.53 336.385L368.84 363.903C368.702 364.202 368.642 364.531 368.665 364.86C368.687 365.189 368.793 365.507 368.971 365.784C369.149 366.062 369.395 366.29 369.685 366.449C369.975 366.607 370.3 366.69 370.63 366.69H637.49C637.826 366.69 638.156 366.604 638.45 366.441C638.743 366.278 638.99 366.042 639.166 365.757C639.343 365.472 639.443 365.147 639.458 364.812C639.473 364.478 639.402 364.145 639.252 363.845L625.459 336.328C625.296 336.001 625.045 335.726 624.733 335.534C624.422 335.342 624.063 335.24 623.697 335.241L383.32 335.241Z" fill="#CCCCCC"/>
<path d="M503.223 166.534C504.856 166.534 506.179 165.214 506.179 163.586C506.179 161.958 504.856 160.638 503.223 160.638C501.591 160.638 500.268 161.958 500.268 163.586C500.268 165.214 501.591 166.534 503.223 166.534Z" fill="white"/>
<path d="M476.993 371.931C476.56 371.932 476.139 372.074 475.795 372.337C475.452 372.6 475.204 372.968 475.091 373.385L471.908 385.178C471.829 385.47 471.819 385.775 471.877 386.071C471.936 386.367 472.062 386.646 472.246 386.885C472.43 387.125 472.667 387.319 472.938 387.452C473.209 387.586 473.508 387.655 473.81 387.655H534.346C534.66 387.655 534.969 387.58 535.249 387.437C535.528 387.293 535.769 387.085 535.951 386.83C536.133 386.574 536.251 386.279 536.296 385.969C536.34 385.659 536.31 385.343 536.207 385.047L532.115 373.254C531.981 372.867 531.729 372.533 531.396 372.296C531.062 372.059 530.662 371.931 530.253 371.931H476.993Z" fill="#CCCCCC"/>
<path d="M638.53 323.12V325.742H367.72L367.923 325.414V323.12H638.53Z" fill="#CCCCCC"/>
<path d="M605.104 329.124C604.998 329.124 604.896 329.159 604.812 329.223C604.728 329.287 604.668 329.377 604.64 329.478L603.865 332.35C603.846 332.421 603.844 332.495 603.858 332.567C603.872 332.639 603.903 332.707 603.948 332.766C603.993 332.824 604.05 332.871 604.116 332.904C604.182 332.936 604.255 332.953 604.329 332.953H619.07C619.146 332.953 619.222 332.935 619.29 332.9C619.358 332.865 619.416 332.814 619.461 332.752C619.505 332.69 619.534 332.618 619.545 332.542C619.556 332.467 619.548 332.39 619.523 332.318L618.527 329.446C618.494 329.352 618.433 329.27 618.352 329.213C618.27 329.155 618.173 329.124 618.073 329.124H605.104Z" fill="#CCCCCC"/>
<path d="M583.58 329.124C583.474 329.124 583.372 329.159 583.288 329.223C583.204 329.287 583.144 329.377 583.116 329.478L582.341 332.35C582.322 332.421 582.319 332.495 582.334 332.567C582.348 332.639 582.379 332.707 582.424 332.766C582.468 332.824 582.526 332.871 582.592 332.904C582.658 332.936 582.731 332.953 582.804 332.953H597.546C597.622 332.953 597.698 332.935 597.766 332.9C597.834 332.865 597.892 332.814 597.937 332.752C597.981 332.69 598.01 332.618 598.021 332.542C598.032 332.467 598.024 332.39 597.999 332.318L597.003 329.446C596.97 329.352 596.909 329.27 596.827 329.213C596.746 329.155 596.649 329.124 596.549 329.124H583.58Z" fill="#CCCCCC"/>
<path d="M521.22 347.371H522.375L520.064 193.33H518.909L518.955 196.403H493.06L493.106 193.33H491.951L489.64 347.371H490.796L490.945 337.384H521.07L521.22 347.371ZM519.554 236.354H492.461L492.743 217.531H519.272L519.554 236.354ZM519.572 237.507L519.854 256.33H492.161L492.444 237.507H519.572ZM519.871 257.482L520.154 276.305H491.862L492.144 257.482H519.871ZM520.171 277.457L520.453 296.28H491.562L491.844 277.457H520.171ZM520.471 297.433L520.753 316.256H491.262L491.545 297.433H520.471ZM518.972 197.556L519.255 216.379H492.761L493.043 197.556H518.972ZM490.963 336.231L491.245 317.408H520.77L521.052 336.231H490.963Z" fill="#3F3D56"/>
<path d="M500.284 246.387C510.689 246.387 519.123 237.974 519.123 227.595C519.123 217.217 510.689 208.804 500.284 208.804C489.88 208.804 481.445 217.217 481.445 227.595C481.445 237.974 489.88 246.387 500.284 246.387Z" fill="#2F2E41"/>
<path d="M511.366 240.582L505.734 241.599L507.56 251.664L513.192 250.647L511.366 240.582Z" fill="#2F2E41"/>
<path d="M500.102 242.616L494.47 243.633L496.297 253.698L501.929 252.681L500.102 242.616Z" fill="#2F2E41"/>
<path d="M499.287 255.816C501.297 254.118 502.409 252.132 501.77 251.38C501.132 250.628 498.985 251.395 496.975 253.093C494.965 254.791 493.853 256.777 494.491 257.529C495.13 258.281 497.277 257.514 499.287 255.816Z" fill="#2F2E41"/>
<path d="M510.315 253.824C512.326 252.126 513.438 250.14 512.799 249.388C512.161 248.636 510.014 249.403 508.004 251.101C505.994 252.799 504.882 254.785 505.52 255.537C506.158 256.289 508.305 255.522 510.315 253.824Z" fill="#2F2E41"/>
<path d="M498.965 229.421C502.521 229.421 505.404 226.546 505.404 222.999C505.404 219.452 502.521 216.576 498.965 216.576C495.409 216.576 492.527 219.452 492.527 222.999C492.527 226.546 495.409 229.421 498.965 229.421Z" fill="white"/>
<path d="M496.319 222.837C497.504 222.837 498.465 221.879 498.465 220.697C498.465 219.514 497.504 218.556 496.319 218.556C495.134 218.556 494.173 219.514 494.173 220.697C494.173 221.879 495.134 222.837 496.319 222.837Z" fill="#3F3D56"/>
<path d="M515.146 207.152C515.429 200.195 509.418 194.302 501.72 193.99C494.021 193.679 487.551 199.065 487.268 206.022C486.984 212.979 492.336 214.56 500.034 214.872C507.732 215.184 514.862 214.109 515.146 207.152Z" fill="#FA8F8F"/>
<path d="M492.07 226.271C492.435 224.683 488.62 222.456 483.55 221.297C478.479 220.137 474.072 220.485 473.707 222.073C473.342 223.66 477.157 225.887 482.228 227.047C487.299 228.206 491.705 227.859 492.07 226.271Z" fill="#2F2E41"/>
<path d="M529.051 232.405C529.416 230.817 525.601 228.59 520.53 227.431C515.459 226.272 511.053 226.619 510.688 228.207C510.323 229.795 514.138 232.022 519.209 233.181C524.28 234.341 528.686 233.993 529.051 232.405Z" fill="#2F2E41"/>
<path d="M505.458 235.001C505.56 235.554 505.551 236.122 505.432 236.672C505.314 237.222 505.088 237.743 504.767 238.206C504.446 238.669 504.037 239.064 503.563 239.369C503.089 239.674 502.56 239.883 502.005 239.984C501.45 240.084 500.881 240.075 500.329 239.956C499.778 239.837 499.256 239.611 498.792 239.291C498.328 238.971 497.932 238.562 497.627 238.089C497.322 237.617 497.113 237.088 497.012 236.535L497.011 236.526C496.588 234.199 498.392 233.376 500.725 232.955C503.058 232.534 505.036 232.674 505.458 235.001Z" fill="white"/>
<path d="M436.477 291.419C438.381 286.45 438.657 281.939 437.093 281.342C435.529 280.746 432.718 284.291 430.814 289.26C428.91 294.229 428.634 298.74 430.198 299.336C431.761 299.933 434.573 296.388 436.477 291.419Z" fill="#2F2E41"/>
<path d="M434.858 307.972C436.566 297.47 429.417 287.575 418.888 285.871C408.36 284.167 398.44 291.299 396.732 301.8C395.023 312.302 402.173 322.197 412.701 323.901C423.23 325.605 433.149 318.473 434.858 307.972Z" fill="#2F2E41"/>
<path d="M412.861 320.004H406.994V330.49H412.861V320.004Z" fill="#2F2E41"/>
<path d="M424.595 320.004H418.728V330.49H424.595V320.004Z" fill="#2F2E41"/>
<path d="M411.884 332.44C414.584 332.44 416.773 331.622 416.773 330.612C416.773 329.602 414.584 328.783 411.884 328.783C409.183 328.783 406.994 329.602 406.994 330.612C406.994 331.622 409.183 332.44 411.884 332.44Z" fill="#2F2E41"/>
<path d="M423.618 332.197C426.318 332.197 428.507 331.378 428.507 330.368C428.507 329.358 426.318 328.539 423.618 328.539C420.917 328.539 418.728 329.358 418.728 330.368C418.728 331.378 420.917 332.197 423.618 332.197Z" fill="#2F2E41"/>
<path d="M397.061 286.972C395.502 280.006 400.487 272.967 408.195 271.25C415.903 269.533 423.416 273.788 424.976 280.754C426.535 287.72 421.426 290.289 413.718 292.006C406.01 293.723 398.621 293.938 397.061 286.972Z" fill="#FA8F8F"/>
<path d="M402.767 300.075C403.485 298.566 400.16 295.495 395.342 293.216C390.523 290.936 386.036 290.311 385.318 291.82C384.601 293.329 387.925 296.4 392.744 298.68C397.562 300.959 402.05 301.584 402.767 300.075Z" fill="#2F2E41"/>
<path d="M332.174 343.655C342.84 343.655 351.487 335.03 351.487 324.391C351.487 313.752 342.84 305.128 332.174 305.128C321.509 305.128 312.862 313.752 312.862 324.391C312.862 335.03 321.509 343.655 332.174 343.655Z" fill="#2F2E41"/>
<path d="M329.241 339.51H323.374V349.995H329.241V339.51Z" fill="#2F2E41"/>
<path d="M340.975 339.51H335.108V349.995H340.975V339.51Z" fill="#2F2E41"/>
<path d="M328.263 351.946C330.963 351.946 333.152 351.127 333.152 350.117C333.152 349.107 330.963 348.288 328.263 348.288C325.563 348.288 323.374 349.107 323.374 350.117C323.374 351.127 325.563 351.946 328.263 351.946Z" fill="#2F2E41"/>
<path d="M339.997 351.702C342.697 351.702 344.886 350.883 344.886 349.873C344.886 348.863 342.697 348.044 339.997 348.044C337.297 348.044 335.108 348.863 335.108 349.873C335.108 350.883 337.297 351.702 339.997 351.702Z" fill="#2F2E41"/>
<path d="M332.663 326.098C336.309 326.098 339.264 323.151 339.264 319.514C339.264 315.878 336.309 312.931 332.663 312.931C329.018 312.931 326.063 315.878 326.063 319.514C326.063 323.151 329.018 326.098 332.663 326.098Z" fill="white"/>
<path d="M332.663 321.709C333.878 321.709 334.863 320.727 334.863 319.514C334.863 318.302 333.878 317.32 332.663 317.32C331.448 317.32 330.463 318.302 330.463 319.514C330.463 320.727 331.448 321.709 332.663 321.709Z" fill="#3F3D56"/>
<path d="M313.441 306.477C311.881 299.511 316.866 292.472 324.574 290.755C332.283 289.038 339.796 293.293 341.355 300.259C342.914 307.225 337.806 309.795 330.098 311.512C322.389 313.228 315 313.443 313.441 306.477Z" fill="#E6E6E6"/>
<path d="M346.256 255.572C348.16 250.603 348.436 246.091 346.872 245.495C345.308 244.899 342.497 248.444 340.593 253.413C338.689 258.382 338.413 262.893 339.977 263.489C341.541 264.085 344.352 260.541 346.256 255.572Z" fill="#2F2E41"/>
<path d="M344.637 272.125C346.345 261.623 339.196 251.728 328.667 250.024C318.139 248.32 308.22 255.452 306.511 265.953C304.803 276.455 311.952 286.35 322.481 288.054C333.009 289.758 342.928 282.626 344.637 272.125Z" fill="#2F2E41"/>
<path d="M322.64 284.157H316.773V294.642H322.64V284.157Z" fill="#2F2E41"/>
<path d="M334.375 284.157H328.507V294.642H334.375V284.157Z" fill="#2F2E41"/>
<path d="M321.663 296.593C324.363 296.593 326.552 295.774 326.552 294.764C326.552 293.754 324.363 292.936 321.663 292.936C318.962 292.936 316.773 293.754 316.773 294.764C316.773 295.774 318.962 296.593 321.663 296.593Z" fill="#2F2E41"/>
<path d="M333.397 296.349C336.097 296.349 338.286 295.531 338.286 294.521C338.286 293.511 336.097 292.692 333.397 292.692C330.696 292.692 328.507 293.511 328.507 294.521C328.507 295.531 330.696 296.349 333.397 296.349Z" fill="#2F2E41"/>
<path d="M326.063 270.746C329.708 270.746 332.663 267.798 332.663 264.162C332.663 260.526 329.708 257.578 326.063 257.578C322.418 257.578 319.463 260.526 319.463 264.162C319.463 267.798 322.418 270.746 326.063 270.746Z" fill="white"/>
<path d="M326.063 266.357C327.278 266.357 328.263 265.374 328.263 264.162C328.263 262.95 327.278 261.968 326.063 261.968C324.848 261.968 323.863 262.95 323.863 264.162C323.863 265.374 324.848 266.357 326.063 266.357Z" fill="#3F3D56"/>
<path d="M306.84 251.124C305.281 244.158 310.266 237.12 317.974 235.403C325.682 233.686 333.195 237.941 334.755 244.907C336.314 251.873 331.206 254.442 323.497 256.159C315.789 257.876 308.4 258.09 306.84 251.124Z" fill="#FA8F8F"/>
<path d="M312.547 264.228C313.264 262.719 309.939 259.648 305.121 257.369C300.303 255.089 295.815 254.464 295.097 255.973C294.38 257.482 297.704 260.553 302.523 262.833C307.341 265.112 311.829 265.737 312.547 264.228Z" fill="#2F2E41"/>
<path d="M316.088 275.989C316.088 277.874 320.955 281.597 326.355 281.597C331.756 281.597 336.819 276.289 336.819 274.404C336.819 272.518 331.756 274.769 326.355 274.769C320.955 274.769 316.088 274.103 316.088 275.989Z" fill="white"/>
<path d="M344.561 195.485C344.204 195.485 343.862 195.627 343.61 195.878C343.358 196.13 343.216 196.471 343.216 196.827V252.291C343.216 252.646 343.358 252.988 343.61 253.239C343.862 253.491 344.204 253.632 344.561 253.633H473.258C473.614 253.632 473.956 253.491 474.208 253.239C474.461 252.988 474.603 252.646 474.603 252.291V196.827C474.603 196.471 474.461 196.13 474.208 195.878C473.956 195.627 473.614 195.485 473.258 195.485H344.561Z" fill="#FA8F8F"/>
<path d="M379.311 237.584C386.523 237.584 392.37 231.753 392.37 224.559C392.37 217.365 386.523 211.533 379.311 211.533C372.099 211.533 366.253 217.365 366.253 224.559C366.253 231.753 372.099 237.584 379.311 237.584Z" fill="white"/>
<path d="M408.784 222.826C408.383 222.832 408.001 222.996 407.72 223.28C407.439 223.565 407.282 223.949 407.282 224.349C407.282 224.748 407.439 225.132 407.72 225.417C408.001 225.702 408.383 225.865 408.784 225.872H450.014C450.215 225.875 450.414 225.839 450.601 225.766C450.787 225.692 450.958 225.583 451.102 225.444C451.246 225.304 451.361 225.138 451.441 224.955C451.521 224.771 451.564 224.574 451.567 224.374C451.57 224.174 451.534 223.975 451.46 223.789C451.387 223.603 451.277 223.433 451.137 223.289C450.998 223.145 450.831 223.03 450.647 222.951C450.463 222.871 450.265 222.829 450.064 222.826C450.047 222.825 450.031 222.825 450.014 222.826H408.784Z" fill="white"/>
<path d="M408.784 214.002C408.383 214.008 408.001 214.172 407.72 214.457C407.439 214.742 407.282 215.125 407.282 215.525C407.282 215.924 407.439 216.308 407.72 216.593C408.001 216.878 408.383 217.041 408.784 217.048H429.373C429.574 217.051 429.773 217.015 429.96 216.942C430.146 216.868 430.317 216.759 430.461 216.62C430.605 216.481 430.721 216.315 430.8 216.131C430.88 215.947 430.923 215.75 430.926 215.55C430.93 215.35 430.893 215.151 430.82 214.965C430.746 214.779 430.636 214.609 430.496 214.465C430.357 214.321 430.19 214.207 430.006 214.127C429.822 214.048 429.624 214.005 429.423 214.002C429.407 214.002 429.39 214.002 429.373 214.002H408.784Z" fill="white"/>
<path d="M408.784 232.07C408.383 232.076 408.001 232.24 407.72 232.524C407.439 232.809 407.282 233.193 407.282 233.593C407.282 233.992 407.439 234.376 407.72 234.661C408.001 234.946 408.383 235.109 408.784 235.116H450.014C450.215 235.119 450.414 235.083 450.601 235.01C450.787 234.936 450.958 234.827 451.102 234.688C451.246 234.548 451.361 234.382 451.441 234.199C451.521 234.015 451.564 233.818 451.567 233.618C451.57 233.417 451.534 233.219 451.46 233.033C451.387 232.846 451.277 232.677 451.137 232.533C450.998 232.389 450.831 232.274 450.647 232.195C450.463 232.115 450.265 232.073 450.064 232.07C450.047 232.069 450.031 232.069 450.014 232.07H408.784Z" fill="white"/>
<path d="M609.025 334.662C610.588 334.065 610.313 329.554 608.409 324.585C606.505 319.616 603.693 316.071 602.129 316.668C600.566 317.264 600.841 321.775 602.745 326.744C604.649 331.713 607.461 335.258 609.025 334.662Z" fill="#2F2E41"/>
<path d="M622.485 363.252C633.013 361.548 640.163 351.653 638.454 341.151C636.746 330.65 626.826 323.518 616.298 325.222C605.77 326.926 598.62 336.821 600.329 347.323C602.037 357.824 611.957 364.956 622.485 363.252Z" fill="#2F2E41"/>
<path d="M628.192 359.355H622.325L623.473 371.912L628.202 370.631L628.192 359.355Z" fill="#2F2E41"/>
<path d="M615.402 359.388H609.534L610.682 371.945L615.198 370.631L615.402 359.388Z" fill="#2F2E41"/>
<path d="M610.516 372.535C613.209 372.338 615.332 371.363 615.258 370.355C615.184 369.348 612.941 368.69 610.248 368.887C607.555 369.083 605.432 370.059 605.506 371.066C605.58 372.074 607.823 372.731 610.516 372.535Z" fill="#2F2E41"/>
<path d="M618.903 345.944C622.548 345.944 625.503 342.996 625.503 339.36C625.503 335.724 622.548 332.776 618.903 332.776C615.257 332.776 612.302 335.724 612.302 339.36C612.302 342.996 615.257 345.944 618.903 345.944Z" fill="white"/>
<path d="M618.903 341.555C620.118 341.555 621.103 340.572 621.103 339.36C621.103 338.148 620.118 337.166 618.903 337.166C617.687 337.166 616.702 338.148 616.702 339.36C616.702 340.572 617.687 341.555 618.903 341.555Z" fill="#3F3D56"/>
<path d="M642.237 332.622C645.405 328.343 646.882 324.07 645.535 323.078C644.189 322.086 640.528 324.75 637.36 329.029C634.192 333.308 632.715 337.581 634.061 338.573C635.408 339.566 639.068 336.901 642.237 332.622Z" fill="#2F2E41"/>
<path d="M609.969 354.17C609.969 352.616 613.98 349.548 618.431 349.548C622.882 349.548 627.055 353.922 627.055 355.476C627.055 357.03 622.882 355.175 618.431 355.175C613.98 355.175 609.969 355.724 609.969 354.17Z" fill="white"/>
<path d="M673.546 328.318L567.833 313.7C567.009 313.585 566.264 313.149 565.762 312.487C565.26 311.825 565.041 310.991 565.155 310.169L577.039 224.659C577.154 223.837 577.591 223.094 578.255 222.594C578.919 222.093 579.754 221.875 580.579 221.988L686.292 236.606C687.116 236.721 687.861 237.157 688.363 237.819C688.865 238.481 689.083 239.315 688.97 240.137L677.086 325.646C676.971 326.469 676.533 327.211 675.87 327.712C675.206 328.213 674.37 328.431 673.546 328.318V328.318Z" fill="#FA8F8F"/>
<path d="M635.675 301.632L581.705 294.169C581.638 294.16 581.571 294.146 581.506 294.125L613.16 253.553C613.354 253.3 613.612 253.103 613.907 252.981C614.203 252.86 614.525 252.819 614.841 252.863C615.158 252.907 615.457 253.034 615.708 253.23C615.959 253.427 616.154 253.687 616.271 253.983L629.288 285.947L629.912 287.477L635.675 301.632Z" fill="white"/>
<path opacity="0.2" d="M635.675 301.631L617.248 299.084L628.115 287.229L628.898 286.375L629.289 285.948L629.912 287.477L635.675 301.631Z" fill="black"/>
<path d="M665.724 305.787L619.045 299.332L629.912 287.477L630.695 286.623L644.855 271.174C645.1 270.942 645.391 270.763 645.709 270.651C646.027 270.538 646.366 270.493 646.702 270.52C647.039 270.546 647.366 270.642 647.663 270.803C647.96 270.964 648.219 271.185 648.425 271.452C648.477 271.527 648.524 271.606 648.565 271.687L665.724 305.787Z" fill="white"/>
<path d="M636.331 267.326C640.789 267.326 644.403 263.722 644.403 259.275C644.403 254.828 640.789 251.224 636.331 251.224C631.873 251.224 628.26 254.828 628.26 259.275C628.26 263.722 631.873 267.326 636.331 267.326Z" fill="white"/>
<path d="M592.154 229.913L582.382 228.561L581.027 238.308L590.799 239.66L592.154 229.913Z" fill="#3F3D56"/>
<path d="M638.125 326.322C639.684 319.356 634.7 312.318 626.991 310.601C619.283 308.884 611.77 313.139 610.211 320.105C608.651 327.071 613.76 329.64 621.468 331.357C629.177 333.074 636.566 333.288 638.125 326.322Z" fill="#F2F2F2"/>
<path d="M623.382 372.504C626.075 372.307 628.198 371.332 628.124 370.324C628.051 369.317 625.808 368.66 623.115 368.856C620.422 369.052 618.298 370.028 618.372 371.035C618.446 372.043 620.689 372.7 623.382 372.504Z" fill="#2F2E41"/>
</g>
<defs>
<clipPath id="clip0">
<rect width="394" height="247" fill="white" transform="translate(295 159)"/>
</clipPath>
</defs>
</svg>
